<svg width="16" height="15" viewBox="0 0 16 15" fill="none" xmlns="http://www.w3.org/2000/svg">
<path fill-rule="evenodd" clip-rule="evenodd" d="M7.875 0.75C4.14708 0.75 1.125 3.77208 1.125 7.5C1.125 11.228 4.14708 14.25 7.875 14.25C11.603 14.25 14.625 11.228 14.625 7.5C14.625 3.77208 11.603 0.75 7.875 0.75ZM9.49928 5.76615C9.69217 5.51615 10.0511 5.46982 10.3012 5.66268C10.5512 5.85555 10.5975 6.21458 10.4047 6.46458L8.11485 9.4329C8.03678 9.53415 7.94572 9.65228 7.85413 9.74168C7.74497 9.84818 7.56465 9.9855 7.3025 9.99848C7.04034 10.0114 6.84734 9.89258 6.7282 9.7974C6.6282 9.71752 6.52592 9.60892 6.43827 9.51585L5.38213 8.39572C5.16551 8.16592 5.17616 7.80413 5.4059 7.58753C5.63564 7.37088 5.99748 7.38152 6.2141 7.6113L7.23809 8.6973L9.49928 5.76615Z" fill="#FF7765"/>
</svg>
