<svg width="16" height="16" viewBox="0 0 16 16" fill="none" xmlns="http://www.w3.org/2000/svg">
<path d="M0.57463 13.8329C0.13528 14.2723 0.13528 14.9845 0.57463 15.4238C1.01396 15.8632 1.72627 15.8632 2.16562 15.4238L7.99927 9.59017L13.8329 15.4238C14.2723 15.8632 14.9846 15.8632 15.424 15.4238C15.8633 14.9845 15.8633 14.2723 15.424 13.8329L9.59032 7.99921L15.4238 2.16562C15.8632 1.72627 15.8632 1.01396 15.4238 0.57463C14.9845 0.13528 14.2723 0.13528 13.8329 0.57463L7.99927 6.40822L2.16569 0.57463C1.72634 0.13528 1.01404 0.13528 0.574705 0.57463C0.135355 1.01396 0.135355 1.72627 0.574705 2.16562L6.4083 7.99921L0.57463 13.8329Z" fill="#CBCBCB"/>
</svg>
