<svg width="23" height="22" viewBox="0 0 23 22" fill="none" xmlns="http://www.w3.org/2000/svg">
<path d="M13.1046 5.95837C13.6516 5.95837 14.1762 5.74108 14.563 5.35428C14.9498 4.96749 15.1671 4.44288 15.1671 3.89587C15.1671 3.34886 14.9498 2.82426 14.563 2.43747C14.1762 2.05067 13.6516 1.83337 13.1046 1.83337C12.5576 1.83337 12.033 2.05067 11.6462 2.43747C11.2594 2.82426 11.0421 3.34886 11.0421 3.89587C11.0421 4.44288 11.2594 4.96749 11.6462 5.35428C12.033 5.74108 12.5576 5.95837 13.1046 5.95837ZM13.1284 11.2265L12.6618 13.2248L15.0644 15.554L16.0489 18.998C16.082 19.1137 16.092 19.2348 16.0783 19.3544C16.0646 19.474 16.0274 19.5898 15.969 19.695C15.9106 19.8003 15.832 19.893 15.7377 19.9679C15.6434 20.0427 15.5354 20.0983 15.4196 20.1314C15.3039 20.1645 15.1827 20.1745 15.0631 20.1608C14.9435 20.1471 14.8278 20.11 14.7226 20.0515C14.6173 19.9931 14.5246 19.9145 14.4497 19.8202C14.3748 19.726 14.3193 19.6179 14.2862 19.5021L13.4364 16.5294L9.17666 12.3998C9.05222 12.308 8.95301 12.1863 8.88826 12.0459C8.82351 11.9055 8.79532 11.751 8.80632 11.5968L8.98507 9.08879C8.34982 9.80654 7.72099 10.836 7.34057 12.1688C7.27372 12.4025 7.11674 12.6002 6.90417 12.7182C6.69161 12.8362 6.44087 12.8649 6.20711 12.7981C5.97336 12.7312 5.77574 12.5742 5.65772 12.3617C5.53971 12.1491 5.51097 11.8984 5.57782 11.6646C6.07832 9.91287 6.94549 8.55529 7.84199 7.62487C8.24312 7.20119 8.70017 6.8342 9.20049 6.53404C9.62307 6.28929 10.1098 6.09587 10.5847 6.09587C10.6305 6.09587 10.676 6.09923 10.7212 6.10596C10.7824 6.10473 10.8435 6.10687 10.9046 6.11237C11.4018 6.15674 11.8793 6.32806 12.2913 6.60991C12.7034 6.89176 13.0361 7.2747 13.2577 7.72204C13.2784 7.75015 13.2974 7.78071 13.3145 7.81371L14.442 9.88904C14.5702 10.1252 14.7487 10.3303 14.9649 10.4898C15.1811 10.6493 15.4298 10.7594 15.6932 10.8121L16.7217 11.0184C16.8431 11.0383 16.9593 11.0825 17.0632 11.1483C17.1672 11.2141 17.2569 11.3002 17.3269 11.4014C17.3968 11.5025 17.4458 11.6168 17.4707 11.7373C17.4956 11.8578 17.496 11.982 17.4719 12.1027C17.4477 12.2233 17.3996 12.3379 17.3302 12.4395C17.2609 12.5411 17.1718 12.6278 17.0683 12.6942C16.9647 12.7607 16.8489 12.8057 16.7276 12.8264C16.6064 12.8472 16.4821 12.8433 16.3624 12.815L15.3339 12.6097C14.4542 12.4337 13.6695 11.9421 13.1284 11.2265Z" fill="#8E8E8E"/>
<path d="M7.96636 16.8705L9.07369 13.5466L10.5367 14.9565L9.70527 17.4498C9.59363 17.7853 9.38734 18.0814 9.11127 18.3023L7.03136 19.9651C6.93734 20.0404 6.82943 20.0963 6.71378 20.1299C6.59812 20.1634 6.477 20.1738 6.35732 20.1606C6.23764 20.1473 6.12175 20.1106 6.01626 20.0525C5.91078 19.9944 5.81776 19.9161 5.74252 19.8221C5.66729 19.7281 5.6113 19.6202 5.57777 19.5046C5.54424 19.3889 5.53382 19.2678 5.5471 19.1481C5.56038 19.0284 5.5971 18.9125 5.65516 18.807C5.71323 18.7016 5.79151 18.6085 5.88552 18.5333L7.96636 16.8705Z" fill="#8E8E8E"/>
</svg>
