<svg width="22" height="22" viewBox="0 0 22 22" fill="none" xmlns="http://www.w3.org/2000/svg">
<path d="M12.6046 5.95837C13.1516 5.95837 13.6762 5.74108 14.063 5.35428C14.4498 4.96749 14.6671 4.44288 14.6671 3.89587C14.6671 3.34886 14.4498 2.82426 14.063 2.43747C13.6762 2.05067 13.1516 1.83337 12.6046 1.83337C12.0576 1.83337 11.533 2.05067 11.1462 2.43747C10.7594 2.82426 10.5421 3.34886 10.5421 3.89587C10.5421 4.44288 10.7594 4.96749 11.1462 5.35428C11.533 5.74108 12.0576 5.95837 12.6046 5.95837ZM12.6284 11.2265L12.1618 13.2248L14.5644 15.554L15.5489 18.998C15.582 19.1137 15.592 19.2348 15.5783 19.3544C15.5646 19.474 15.5274 19.5898 15.469 19.695C15.4106 19.8003 15.332 19.893 15.2377 19.9679C15.1434 20.0427 15.0354 20.0983 14.9196 20.1314C14.8039 20.1645 14.6827 20.1745 14.5631 20.1608C14.4435 20.1471 14.3278 20.11 14.2226 20.0515C14.1173 19.9931 14.0246 19.9145 13.9497 19.8202C13.8748 19.726 13.8193 19.6179 13.7862 19.5021L12.9364 16.5294L8.67666 12.3998C8.55222 12.308 8.45301 12.1863 8.38826 12.0459C8.32351 11.9055 8.29532 11.751 8.30632 11.5968L8.48507 9.08879C7.84982 9.80654 7.22099 10.836 6.84057 12.1688C6.77372 12.4025 6.61674 12.6002 6.40417 12.7182C6.19161 12.8362 5.94087 12.8649 5.70711 12.7981C5.47336 12.7312 5.27574 12.5742 5.15772 12.3617C5.03971 12.1491 5.01097 11.8984 5.07782 11.6646C5.57832 9.91287 6.44549 8.55529 7.34199 7.62487C7.74312 7.20119 8.20017 6.8342 8.70049 6.53404C9.12307 6.28929 9.60982 6.09587 10.0847 6.09587C10.1305 6.09587 10.176 6.09923 10.2212 6.10596C10.2824 6.10473 10.3435 6.10687 10.4046 6.11237C10.9018 6.15674 11.3793 6.32806 11.7913 6.60991C12.2034 6.89176 12.5361 7.2747 12.7577 7.72204C12.7784 7.75015 12.7974 7.78071 12.8145 7.81371L13.942 9.88904C14.0702 10.1252 14.2487 10.3303 14.4649 10.4898C14.6811 10.6493 14.9298 10.7594 15.1932 10.8121L16.2217 11.0184C16.3431 11.0383 16.4593 11.0825 16.5632 11.1483C16.6672 11.2141 16.7569 11.3002 16.8269 11.4014C16.8968 11.5025 16.9458 11.6168 16.9707 11.7373C16.9956 11.8578 16.996 11.982 16.9719 12.1027C16.9477 12.2233 16.8996 12.3379 16.8302 12.4395C16.7609 12.5411 16.6718 12.6278 16.5683 12.6942C16.4647 12.7607 16.3489 12.8057 16.2276 12.8264C16.1064 12.8472 15.9821 12.8433 15.8624 12.815L14.8339 12.6097C13.9542 12.4337 13.1695 11.9421 12.6284 11.2265Z" fill="#FFF6F0"/>
<path d="M7.46636 16.8705L8.57369 13.5466L10.0367 14.9565L9.20527 17.4498C9.09363 17.7853 8.88734 18.0814 8.61127 18.3023L6.53136 19.9651C6.43734 20.0404 6.32943 20.0963 6.21378 20.1299C6.09812 20.1634 5.977 20.1738 5.85732 20.1606C5.73764 20.1473 5.62175 20.1106 5.51626 20.0525C5.41078 19.9944 5.31776 19.9161 5.24252 19.8221C5.16729 19.7281 5.1113 19.6202 5.07777 19.5046C5.04424 19.3889 5.03382 19.2678 5.0471 19.1481C5.06038 19.0284 5.0971 18.9125 5.15516 18.807C5.21323 18.7016 5.29151 18.6085 5.38552 18.5333L7.46636 16.8705Z" fill="#FFF6F0"/>
</svg>
